<?xml version="1.0" standalone="no"?>
<!DOCTYPE svg PUBLIC "-//W3C//DTD SVG 20010904//EN"
 "http://www.w3.org/TR/2001/REC-SVG-20010904/DTD/svg10.dtd">
<svg version="1.0" xmlns="http://www.w3.org/2000/svg"
 width="279.000000pt" height="279.000000pt" viewBox="0 0 279.000000 279.000000"
 preserveAspectRatio="xMidYMid meet">
<metadata>
Created by potrace 1.14, written by Peter Selinger 2001-2017
</metadata>
<g transform="translate(0.000000,279.000000) scale(0.100000,-0.100000)"
fill="#000000" stroke="none">
<path d="M620 1390 l0 -820 105 0 105 0 0 622 0 623 272 -483 271 -482 61 0
62 0 269 480 270 480 3 -620 2 -620 105 0 105 0 0 820 0 821 -111 -3 -111 -3
-293 -523 c-161 -288 -296 -523 -301 -523 -5 0 -140 235 -301 523 l-291 523
-111 3 -111 3 0 -821z"/>
</g>
</svg>
